<?xml version="1.0" standalone="no"?><?xml-stylesheet type="text/css" href="https://wps.processon.com/themes/default/wps/mind/icons/icons.css" ?><!DOCTYPE svg PUBLIC "-//W3C//DTD SVG 1.1//EN" "http://www.w3.org/Graphics/SVG/1.1/DTD/svg11.dtd"><svg id="SvgjsSvg6486" width="1090.0221362632803" height="812.817028985507" xmlns="http://www.w3.org/2000/svg" version="1.1" xmlns:xlink="http://www.w3.org/1999/xlink" xmlns:svgjs="http://svgjs.com/svgjs"><defs id="SvgjsDefs6487"><pattern id="SvgjsPattern6503" x="0" y="0" width="184.16259664815271" height="143.6833355665553" patternUnits="userSpaceOnUse"><image id="SvgjsImage6504" xlink:href="https://tc-cdn.processon.com/wps/6a030df637047a168255d257.svg" width="184.16259664815271" height="143.6833355665553" preserveAspectRatio="none" crossOrigin="anonymous" x="0" y="0"></image></pattern><pattern id="SvgjsPattern6507" x="0" y="0" width="247.8165512580616" height="219.33040855527406" patternUnits="userSpaceOnUse"><image id="SvgjsImage6508" xlink:href="https://tc-cdn.processon.com/wps/6a030e11e0a61136804018eb.svg" width="247.8165512580616" height="219.33040855527406" preserveAspectRatio="none" crossOrigin="anonymous" x="0" y="0"></image></pattern><pattern id="SvgjsPattern6511" x="0" y="0" width="127.85454031632011" height="132.3143013864999" patternUnits="userSpaceOnUse"><image id="SvgjsImage6512" xlink:href="https://tc-cdn.processon.com/wps/6a030fea2759a77fc42d6bb1.svg" width="127.85454031632011" height="132.3143013864999" preserveAspectRatio="none" crossOrigin="anonymous" x="0" y="0"></image></pattern><pattern id="SvgjsPattern6515" x="0" y="0" width="126.16613733630203" height="136.28874954590452" patternUnits="userSpaceOnUse"><image id="SvgjsImage6516" xlink:href="https://tc-cdn.processon.com/wps/6a03102ebfb7956e20b19f06.svg" width="126.16613733630203" height="136.28874954590452" preserveAspectRatio="none" crossOrigin="anonymous" x="0" y="0"></image></pattern><pattern id="SvgjsPattern6519" x="0" y="0" width="84.46027435932375" height="98.52922825325496" patternUnits="userSpaceOnUse"><image id="SvgjsImage6520" xlink:href="https://wps.processon.com/v5_editor/static/assets/images/designer/3d_shapes/cube.svg" width="84.46027435932375" height="98.52922825325496" preserveAspectRatio="none" crossOrigin="anonymous" x="0" y="0"></image></pattern><pattern id="SvgjsPattern6529" x="0" y="0" width="153.54465834989432" height="104.74834917532893" patternUnits="userSpaceOnUse"><image id="SvgjsImage6530" xlink:href="https://tc-cdn.processon.com/wps/6a030e6389c42867c60de98a.svg" width="153.54465834989432" height="104.74834917532893" preserveAspectRatio="none" crossOrigin="anonymous" x="0" y="0"></image></pattern><marker id="SvgjsMarker6533" markerWidth="16" markerHeight="12" refX="11" refY="6" viewBox="0 0 16 12" orient="auto" markerUnits="userSpaceOnUse" stroke-dasharray="0,0"><path id="SvgjsPath6534" d="M0,0 L16,6 L0,12 L0,0" fill="#37758b" stroke="#37758b" stroke-width="1"></path></marker><marker id="SvgjsMarker6541" markerWidth="16" markerHeight="12" refX="11" refY="6" viewBox="0 0 16 12" orient="auto" markerUnits="userSpaceOnUse" stroke-dasharray="0,0"><path id="SvgjsPath6542" d="M0,0 L16,6 L0,12 L0,0" fill="#37758b" stroke="#37758b" stroke-width="1"></path></marker><marker id="SvgjsMarker6565" markerWidth="16" markerHeight="12" refX="11" refY="6" viewBox="0 0 16 12" orient="auto" markerUnits="userSpaceOnUse" stroke-dasharray="0,0"><path id="SvgjsPath6566" d="M0,0 L16,6 L0,12 L0,0" fill="#a23735" stroke="#a23735" stroke-width="1"></path></marker><marker id="SvgjsMarker6597" markerWidth="16" markerHeight="12" refX="11" refY="6" viewBox="0 0 16 12" orient="auto" markerUnits="userSpaceOnUse" stroke-dasharray="0,0"><path id="SvgjsPath6598" d="M0,0 L16,6 L0,12 L0,0" fill="#37758b" stroke="#37758b" stroke-width="1"></path></marker><marker id="SvgjsMarker6601" markerWidth="16" markerHeight="12" refX="11" refY="6" viewBox="0 0 16 12" orient="auto" markerUnits="userSpaceOnUse" stroke-dasharray="0,0"><path id="SvgjsPath6602" d="M0,0 L16,6 L0,12 L0,0" fill="#a23735" stroke="#a23735" stroke-width="1"></path></marker><marker id="SvgjsMarker6625" markerWidth="16" markerHeight="12" refX="11" refY="6" viewBox="0 0 16 12" orient="auto" markerUnits="userSpaceOnUse" stroke-dasharray="0,0"><path id="SvgjsPath6626" d="M0,0 L16,6 L0,12 L0,0" fill="#37758b" stroke="#37758b" stroke-width="1"></path></marker><marker id="SvgjsMarker6629" markerWidth="16" markerHeight="12" refX="11" refY="6" viewBox="0 0 16 12" orient="auto" markerUnits="userSpaceOnUse" stroke-dasharray="0,0"><path id="SvgjsPath6630" d="M0,0 L16,6 L0,12 L0,0" fill="#37758b" stroke="#37758b" stroke-width="1"></path></marker><marker id="SvgjsMarker6633" markerWidth="16" markerHeight="12" refX="11" refY="6" viewBox="0 0 16 12" orient="auto" markerUnits="userSpaceOnUse" stroke-dasharray="0,0"><path id="SvgjsPath6634" d="M0,0 L16,6 L0,12 L0,0" fill="#a23735" stroke="#a23735" stroke-width="1"></path></marker><marker id="SvgjsMarker6665" markerWidth="16" markerHeight="12" refX="11" refY="6" viewBox="0 0 16 12" orient="auto" markerUnits="userSpaceOnUse" stroke-dasharray="0,0"><path id="SvgjsPath6666" d="M0,0 L16,6 L0,12 L0,0" fill="#a23735" stroke="#a23735" stroke-width="1"></path></marker><pattern id="SvgjsPattern6669" x="0" y="0" width="108" height="108" patternUnits="userSpaceOnUse"><image id="SvgjsImage6670" xlink:href="https://tc-cdn.processon.com/wps/6a0349d15cb85076c6356359.svg" width="108" height="108" preserveAspectRatio="none" crossOrigin="anonymous" x="0" y="0"></image></pattern><pattern id="SvgjsPattern6673" x="0" y="0" width="43" height="42" patternUnits="userSpaceOnUse"><image id="SvgjsImage6674" xlink:href="https://tc-cdn.processon.com/wps/6a034a0fbd90742488322279.svg" width="43" height="42" preserveAspectRatio="none" crossOrigin="anonymous" x="0" y="0"></image></pattern><marker id="SvgjsMarker6677" markerWidth="16" markerHeight="12" refX="11" refY="6" viewBox="0 0 16 12" orient="auto" markerUnits="userSpaceOnUse" stroke-dasharray="0,0"><path id="SvgjsPath6678" d="M0,0 L16,6 L0,12 L0,0" fill="#37758b" stroke="#37758b" stroke-width="1"></path></marker><pattern patternUnits="userSpaceOnUse" id="wpspattern_mark_0" width="300" height="300"><text x="150" y="100" fill="#0000004d" font-size="18" transform="rotate(-45, 150, 150)" style="dominant-baseline: middle; text-anchor: middle;"></text></pattern></defs><rect id="svgbackgroundid" width="1090.0221362632803" height="812.817028985507" fill="transparent"></rect><g id="SvgjsG6489" transform="translate(299.89680451874307,25)"><path id="SvgjsPath6490" d="M 0 4Q 0 0 4 0L 556.167 0Q 560.167 0 560.167 4L 560.167 758.817Q 560.167 762.817 556.167 762.817L 4 762.817Q 0 762.817 0 758.817Z" stroke="rgba(255,255,255,1)" stroke-width="1.5" fill-opacity="1" fill="#e0e0e0"></path><g id="SvgjsG6491"><text id="SvgjsText6492" font-family="&quot;Microsoft YaHei&quot;, 微软雅黑, Arial" text-anchor="middle" font-size="13px" width="541px" fill="#323232" font-weight="400" align="middle" lineHeight="125%" anchor="middle" family="&quot;Microsoft YaHei&quot;, 微软雅黑, Arial" size="13px" weight="400" font-style="" opacity="1" y="370.7835" transform="rotate(0)"></text></g></g><g id="SvgjsG6493" transform="translate(336.3320641764,426.038102707637)"><path id="SvgjsPath6494" d="M 0 4Q 0 0 4 0L 494.93 0Q 498.93 0 498.93 4L 498.93 289.559Q 498.93 293.559 494.93 293.559L 4 293.559Q 0 293.559 0 289.559Z" stroke="rgba(255,255,255,1)" stroke-width="1.5" fill-opacity="1" fill="#ffffff"></path><g id="SvgjsG6495"><text id="SvgjsText6496" font-family="&quot;Microsoft YaHei&quot;, 微软雅黑, Arial" text-anchor="middle" font-size="13px" width="479px" fill="#323232" font-weight="400" align="middle" lineHeight="125%" anchor="middle" family="&quot;Microsoft YaHei&quot;, 微软雅黑, Arial" size="13px" weight="400" font-style="" opacity="1" y="136.1545" transform="rotate(0)"></text></g></g><g id="SvgjsG6497" transform="translate(336.3320641764,79.56670824882718)"><path id="SvgjsPath6498" d="M 0 4Q 0 0 4 0L 494.93 0Q 498.93 0 498.93 4L 498.93 289.559Q 498.93 293.559 494.93 293.559L 4 293.559Q 0 293.559 0 289.559Z" stroke="rgba(255,255,255,1)" stroke-width="1.5" fill-opacity="1" fill="#ffffff"></path><g id="SvgjsG6499"><text id="SvgjsText6500" font-family="&quot;Microsoft YaHei&quot;, 微软雅黑, Arial" text-anchor="middle" font-size="13px" width="479px" fill="#323232" font-weight="400" align="middle" lineHeight="125%" anchor="middle" family="&quot;Microsoft YaHei&quot;, 微软雅黑, Arial" size="13px" weight="400" font-style="" opacity="1" y="136.1545" transform="rotate(0)"></text></g></g><g id="SvgjsG6501" transform="translate(639.9569071467802,170.4841048176437)"><path id="SvgjsPath6502" d="M 0 0L 184.163 0L 184.163 143.683L 0 143.683Z" stroke="none" fill="url(#SvgjsPattern6503)" opacity="1"></path></g><g id="SvgjsG6505" transform="translate(336.3320641764,137.81349181085227)"><path id="SvgjsPath6506" d="M 0 0L 247.817 0L 247.817 219.33L 0 219.33Z" stroke="none" fill="url(#SvgjsPattern6507)" opacity="1"></path></g><g id="SvgjsG6509" transform="translate(646.401027236903,497.3627649113703)"><path id="SvgjsPath6510" d="M 0 0L 127.855 0L 127.855 132.314L 0 132.314Z" stroke="none" fill="url(#SvgjsPattern6511)" opacity="1"></path></g><g id="SvgjsG6513" transform="translate(387.77077435245843,495.3755408316679)"><path id="SvgjsPath6514" d="M 0 0L 126.166 0L 126.166 136.289L 0 136.289Z" stroke="none" fill="url(#SvgjsPattern6515)" opacity="1"></path></g><g id="SvgjsG6517" transform="translate(138.3091543365913,357.14390036612633)"><path id="SvgjsPath6518" d="M 0 0L 84.46 0L 84.46 98.529L 0 98.529Z" stroke="none" fill="url(#SvgjsPattern6519)" opacity="1"></path></g><g id="SvgjsG6521" transform="translate(25,375.8962373562616)"><path id="SvgjsPath6522" d="M 0 0L 129.939 0L 129.939 61.025L 0 61.025Z" stroke="none" fill="none"></path><g id="SvgjsG6523"><text id="SvgjsText6524" font-family="&quot;Microsoft YaHei&quot;, 微软雅黑, Arial" text-anchor="middle" font-size="13px" width="130px" fill="#323232" font-weight="700" align="middle" lineHeight="125%" anchor="middle" family="&quot;Microsoft YaHei&quot;, 微软雅黑, Arial" size="13px" weight="700" font-style="" opacity="1" y="19.8875" transform="rotate(0)"><tspan id="SvgjsTspan6525" dy="16.25" x="65"><tspan id="SvgjsTspan6526" style="">MODEL</tspan></tspan></text></g></g><g id="SvgjsG6527" transform="translate(722.7487584885168,556.9056857841224)"><path id="SvgjsPath6528" d="M 0 0L 153.545 0L 153.545 104.748L 0 104.748Z" stroke="none" fill="url(#SvgjsPattern6529)" opacity="1"></path></g><g id="SvgjsG6531"><path id="SvgjsPath6532" d="M180.53929151625314 357.14390036612633L180.53929151625314 321.61708311550245L180.53929151625314 321.61708311550245L180.53929151625314 286.0902658648786" stroke="#37758b" stroke-width="3" fill="none" marker-end="url(#SvgjsMarker6533)"></path><rect id="SvgjsRect6535" width="37" height="18" x="162.03929151625314" y="313.84178713678625" fill="#ffffff"></rect><text id="SvgjsText6536" font-family="&quot;Microsoft YaHei&quot;, 微软雅黑, Arial" text-anchor="middle" font-size="13px" width="37px" fill="#323232" font-weight="400" align="top" lineHeight="16px" anchor="middle" family="&quot;Microsoft YaHei&quot;, 微软雅黑, Arial" size="13px" weight="400" font-style="" opacity="1" y="311.21678713678625" transform="rotate(0)"><tspan id="SvgjsTspan6537" dy="16.25" x="180.53929151625314"><tspan id="SvgjsTspan6538" style="">strace</tspan></tspan></text></g><g id="SvgjsG6539"><path id="SvgjsPath6540" d="M176.5392915162532 455.20833333333326L176.5392915162532 493.3771071783958L176.5392915162532 493.3771071783958L176.5392915162532 526.8958810234584" stroke="#37758b" stroke-width="3" fill="none" marker-end="url(#SvgjsMarker6541)"></path><rect id="SvgjsRect6543" width="100" height="18" x="126.5392915162532" y="485.24639971852514" fill="#ffffff"></rect><text id="SvgjsText6544" font-family="&quot;Microsoft YaHei&quot;, 微软雅黑, Arial" text-anchor="middle" font-size="13px" width="100px" fill="#323232" font-weight="400" align="top" lineHeight="16px" anchor="middle" family="&quot;Microsoft YaHei&quot;, 微软雅黑, Arial" size="13px" weight="400" font-style="" opacity="1" y="482.62139971852514" transform="rotate(0)"><tspan id="SvgjsTspan6545" dy="16.25" x="176.5392915162532"><tspan id="SvgjsTspan6546" style="">Instrumentation</tspan></tspan></text></g><g id="SvgjsG6547" transform="translate(93.29719419095807,181.1527386079352)"><path id="SvgjsPath6548" d="M 0 3.9999999999999996Q 0 0 3.9999999999999996 0L 162.484 0Q 166.484 0 166.484 3.9999999999999996L 166.484 96.118Q 166.484 100.118 162.484 100.118L 3.9999999999999996 100.118Q 0 100.118 0 96.118Z" stroke="rgba(55,117,139,1)" stroke-width="1.5" fill-opacity="1" fill="#e7ebed"></path><g id="SvgjsG6549"><text id="SvgjsText6550" font-family="&quot;Microsoft YaHei&quot;, 微软雅黑, Arial" text-anchor="middle" font-size="13px" width="147px" fill="#323232" font-weight="700" align="middle" lineHeight="125%" anchor="middle" family="&quot;Microsoft YaHei&quot;, 微软雅黑, Arial" size="13px" weight="700" font-style="" opacity="1" y="30.933999999999997" transform="rotate(0)"><tspan id="SvgjsTspan6551" dy="16.25" x="83.5"><tspan id="SvgjsTspan6552" style="">OS KERNEL </tspan></tspan><tspan id="SvgjsTspan6553" dy="16.25" x="83.5"><tspan id="SvgjsTspan6554" style="">LAYER</tspan></tspan></text></g></g><g id="SvgjsG6555" transform="translate(93.29719419095807,531.5458810234584)"><path id="SvgjsPath6556" d="M 0 3.9999999999999996Q 0 0 3.9999999999999996 0L 162.484 0Q 166.484 0 166.484 3.9999999999999996L 166.484 96.118Q 166.484 100.118 162.484 100.118L 3.9999999999999996 100.118Q 0 100.118 0 96.118Z" stroke="rgba(55,117,139,1)" stroke-width="1.5" fill-opacity="1" fill="#e7ebed"></path><g id="SvgjsG6557"><text id="SvgjsText6558" font-family="&quot;Microsoft YaHei&quot;, 微软雅黑, Arial" text-anchor="middle" font-size="13px" width="147px" fill="#323232" font-weight="700" align="middle" lineHeight="125%" anchor="middle" family="&quot;Microsoft YaHei&quot;, 微软雅黑, Arial" size="13px" weight="700" font-style="" opacity="1" y="30.933999999999997" transform="rotate(0)"><tspan id="SvgjsTspan6559" dy="16.25" x="83.5"><tspan id="SvgjsTspan6560" style="">APPLICATION </tspan></tspan><tspan id="SvgjsTspan6561" dy="16.25" x="83.5"><tspan id="SvgjsTspan6562" style="">LAYER</tspan></tspan></text></g></g><g id="SvgjsG6563"><path id="SvgjsPath6564" d="M824.9883947754872 242.82197298361024C 1074.9003971328455 376.20833333333326 235.9003971328455 415.20833333333326 212.55189877051868 527.142951304842" stroke="#a23735" stroke-width="3" fill="none" marker-end="url(#SvgjsMarker6565)"></path></g><g id="SvgjsG6567" transform="translate(662.047961087052,137.81349181085227)"><path id="SvgjsPath6568" d="M 0 0L 143.261 0L 143.261 51.405L 0 51.405Z" stroke="none" fill="none"></path><g id="SvgjsG6569"><text id="SvgjsText6570" font-family="&quot;Microsoft YaHei&quot;, 微软雅黑, Arial" text-anchor="middle" font-size="12px" width="144px" fill="#323232" font-weight="400" align="middle" lineHeight="125%" anchor="middle" family="&quot;Microsoft YaHei&quot;, 微软雅黑, Arial" size="12px" weight="400" font-style="" opacity="1" y="8.2025" transform="rotate(0)"><tspan id="SvgjsTspan6571" dy="15" x="72"><tspan id="SvgjsTspan6572" style="">RECONSTRUCTION </tspan></tspan><tspan id="SvgjsTspan6573" dy="15" x="72"><tspan id="SvgjsTspan6574" style="">ERROR</tspan></tspan></text></g></g><g id="SvgjsG6575" transform="translate(419.52267619121085,27.19667057490011)"><path id="SvgjsPath6576" d="M 0 0L 324.528 0L 324.528 51.02L 0 51.02Z" stroke="none" fill="none"></path><g id="SvgjsG6577"><text id="SvgjsText6578" font-family="&quot;Microsoft YaHei&quot;, 微软雅黑, Arial" text-anchor="middle" font-size="17px" width="325px" fill="#323232" font-weight="700" align="middle" lineHeight="125%" anchor="middle" family="&quot;Microsoft YaHei&quot;, 微软雅黑, Arial" size="17px" weight="700" font-style="" opacity="1" y="10.885000000000002" transform="rotate(0)"><tspan id="SvgjsTspan6579" dy="21.25" x="162.5"><tspan id="SvgjsTspan6580" style="">TWO-STAGE DETECTION PIPELINE</tspan></tspan></text></g></g><g id="SvgjsG6581" transform="translate(445.4516269431977,92.83116814939774)"><path id="SvgjsPath6582" d="M 0 0L 272.67 0L 272.67 51.02L 0 51.02Z" stroke="none" fill="none"></path><g id="SvgjsG6583"><text id="SvgjsText6584" font-family="&quot;Microsoft YaHei&quot;, 微软雅黑, Arial" text-anchor="middle" font-size="16px" width="273px" fill="#37758b" font-weight="700" align="middle" lineHeight="125%" anchor="middle" family="&quot;Microsoft YaHei&quot;, 微软雅黑, Arial" size="16px" weight="700" font-style="" opacity="1" y="1.5100000000000016" transform="rotate(0)"><tspan id="SvgjsTspan6585" dy="20" x="136.5"><tspan id="SvgjsTspan6586" style="">STAGE 1: UNSUPERVISED </tspan></tspan><tspan id="SvgjsTspan6587" dy="20" x="136.5"><tspan id="SvgjsTspan6588" style="">SCREENING</tspan></tspan></text></g></g><g id="SvgjsG6589" transform="translate(666.3957871740085,316.93589747436863)"><path id="SvgjsPath6590" d="M 0 0L 112.068 0L 112.068 46.309L 0 46.309Z" stroke="none" fill="none"></path><g id="SvgjsG6591"><text id="SvgjsText6592" font-family="&quot;Microsoft YaHei&quot;, 微软雅黑, Arial" text-anchor="middle" font-size="14px" width="113px" fill="#323232" font-weight="700" align="middle" lineHeight="125%" anchor="middle" family="&quot;Microsoft YaHei&quot;, 微软雅黑, Arial" size="14px" weight="700" font-style="" opacity="1" y="11.404499999999999" transform="rotate(0)"><tspan id="SvgjsTspan6593" dy="17.5" x="56.5"><tspan id="SvgjsTspan6594" style="">ANOMALOUS</tspan></tspan></text></g></g><g id="SvgjsG6595"><path id="SvgjsPath6596" d="M590.2392471187375 211.302980095002L615.431983741244 211.302980095002L615.431983741244 211.302980095002L635.7247203637505 211.302980095002" stroke="#37758b" stroke-width="3" fill="none" marker-end="url(#SvgjsMarker6597)"></path></g><g id="SvgjsG6599"><path id="SvgjsPath6600" d="M590.2392471187375 264.9374997456023L615.0980771327588 264.9374997456023L615.0980771327588 264.9374997456023L635.0569071467803 264.9374997456023" stroke="#a23735" stroke-width="3" fill="none" marker-end="url(#SvgjsMarker6601)"></path></g><g id="SvgjsG6603" transform="translate(435.1305106667392,436.9207916292455)"><path id="SvgjsPath6604" d="M 0 0L 294.56 0L 294.56 46.309L 0 46.309Z" stroke="none" fill="none"></path><g id="SvgjsG6605"><text id="SvgjsText6606" font-family="&quot;Microsoft YaHei&quot;, 微软雅黑, Arial" text-anchor="middle" font-size="17px" width="295px" fill="#37758b" font-weight="700" align="middle" lineHeight="125%" anchor="middle" family="&quot;Microsoft YaHei&quot;, 微软雅黑, Arial" size="17px" weight="700" font-style="" opacity="1" y="8.529499999999999" transform="rotate(0)"><tspan id="SvgjsTspan6607" dy="21.25" x="147.5"><tspan id="SvgjsTspan6608" style="">STAGE 2: DEEP INTENT REASONING</tspan></tspan></text></g></g><g id="SvgjsG6609" transform="translate(387.77077435245843,648.395714542864)"><path id="SvgjsPath6610" d="M 0 0L 112.068 0L 112.068 46.309L 0 46.309Z" stroke="none" fill="none"></path><g id="SvgjsG6611"><text id="SvgjsText6612" font-family="&quot;Microsoft YaHei&quot;, 微软雅黑, Arial" text-anchor="middle" font-size="13px" width="113px" fill="#000000" font-weight="700" align="middle" lineHeight="125%" anchor="middle" family="&quot;Microsoft YaHei&quot;, 微软雅黑, Arial" size="13px" weight="700" font-style="" opacity="1" y="4.029499999999999" transform="rotate(0)"><tspan id="SvgjsTspan6613" dy="16.25" x="56.5"><tspan id="SvgjsTspan6614" style="">CROSS-LAYER</tspan></tspan><tspan id="SvgjsTspan6615" dy="16.25" x="56.5"><tspan id="SvgjsTspan6616" style="">ALIGNMENT</tspan></tspan></text></g></g><g id="SvgjsG6617" transform="translate(617.6227271712421,648.395714542864)"><path id="SvgjsPath6618" d="M 0 0L 112.068 0L 112.068 46.309L 0 46.309Z" stroke="none" fill="none"></path><g id="SvgjsG6619"><text id="SvgjsText6620" font-family="&quot;Microsoft YaHei&quot;, 微软雅黑, Arial" text-anchor="middle" font-size="13px" width="113px" fill="#000000" font-weight="700" align="middle" lineHeight="125%" anchor="middle" family="&quot;Microsoft YaHei&quot;, 微软雅黑, Arial" size="13px" weight="700" font-style="" opacity="1" y="12.529499999999999" transform="rotate(0)"><tspan id="SvgjsTspan6621" dy="16.25" x="56.5"><tspan id="SvgjsTspan6622" style="">LLM</tspan></tspan></text></g></g><g id="SvgjsG6623"><path id="SvgjsPath6624" d="M260.53119419095805 581.6048810234583L294.3407956619018 581.6048810234583L294.3407956619018 581.6048810234583L328.9003971328455 581.6048810234583" stroke="#37758b" stroke-width="3" fill="none" marker-end="url(#SvgjsMarker6625)"></path></g><g id="SvgjsG6627"><path id="SvgjsPath6628" d="M533.474559821286 540.2460179906159L575.548643496264 540.2460179906159L575.548643496264 540.2460179906159L617.6227271712421 540.2460179906159" stroke="#37758b" stroke-width="3" fill="none" marker-end="url(#SvgjsMarker6629)"></path></g><g id="SvgjsG6631"><path id="SvgjsPath6632" d="M534.692686158141 593.8805376412163L576.1577066646917 593.8805376412163L576.1577066646917 593.8805376412163L617.6227271712421 593.8805376412163" stroke="#a23735" stroke-width="3" fill="none" marker-end="url(#SvgjsMarker6633)"></path></g><g id="SvgjsG6635" transform="translate(524.8569188719757,505.6431159420289)"><path id="SvgjsPath6636" d="M 0 0L 100 0L 100 40L 0 40Z" stroke="none" fill="none"></path><g id="SvgjsG6637"><text id="SvgjsText6638" font-family="&quot;Microsoft YaHei&quot;, 微软雅黑, Arial" text-anchor="middle" font-size="13px" width="100px" fill="#323232" font-weight="400" align="middle" lineHeight="125%" anchor="middle" family="&quot;Microsoft YaHei&quot;, 微软雅黑, Arial" size="13px" weight="400" font-style="" opacity="1" y="9.375" transform="rotate(0)"><tspan id="SvgjsTspan6639" dy="16.25" x="50"><tspan id="SvgjsTspan6640" style="">sys_read</tspan></tspan></text></g></g><g id="SvgjsG6641" transform="translate(845.4221362632802,465.6431159420289)"><path id="SvgjsPath6642" d="M 0 0L 160 0L 160 40L 0 40Z" stroke="none" fill="none"></path><g id="SvgjsG6643"><text id="SvgjsText6644" font-family="&quot;Microsoft YaHei&quot;, 微软雅黑, Arial" text-anchor="middle" font-size="13px" width="160px" fill="#323232" font-weight="400" align="middle" lineHeight="125%" anchor="middle" family="&quot;Microsoft YaHei&quot;, 微软雅黑, Arial" size="13px" weight="400" font-style="" opacity="1" y="9.375" transform="rotate(0)"></text></g></g><g id="SvgjsG6645" transform="translate(514.7182600928932,530.1103713836148)"><path id="SvgjsPath6646" d="M 0 0L 120.167 0L 120.167 40L 0 40Z" stroke="none" fill="none"></path><g id="SvgjsG6647"><text id="SvgjsText6648" font-family="&quot;Microsoft YaHei&quot;, 微软雅黑, Arial" text-anchor="middle" font-size="13px" width="121px" fill="#323232" font-weight="400" align="middle" lineHeight="125%" anchor="middle" family="&quot;Microsoft YaHei&quot;, 微软雅黑, Arial" size="13px" weight="400" font-style="" opacity="1" y="9.375" transform="rotate(0)"><tspan id="SvgjsTspan6649" dy="16.25" x="60.5"><tspan id="SvgjsTspan6650" style="">tf.ReadFile</tspan></tspan></text></g></g><g id="SvgjsG6651" transform="translate(524.8017347621553,591.6642903775725)"><path id="SvgjsPath6652" d="M 0 0L 100 0L 100 40L 0 40Z" stroke="none" fill="none"></path><g id="SvgjsG6653"><text id="SvgjsText6654" font-family="&quot;Microsoft YaHei&quot;, 微软雅黑, Arial" text-anchor="middle" font-size="13px" width="100px" fill="#323232" font-weight="400" align="middle" lineHeight="125%" anchor="middle" family="&quot;Microsoft YaHei&quot;, 微软雅黑, Arial" size="13px" weight="400" font-style="" opacity="1" y="9.375" transform="rotate(0)"><tspan id="SvgjsTspan6655" dy="16.25" x="50"><tspan id="SvgjsTspan6656" style="">tf.DebugV3</tspan></tspan></text></g></g><g id="SvgjsG6657" transform="translate(524.8569188719757,560.1695760606718)"><path id="SvgjsPath6658" d="M 0 0L 100 0L 100 40L 0 40Z" stroke="none" fill="none"></path><g id="SvgjsG6659"><text id="SvgjsText6660" font-family="&quot;Microsoft YaHei&quot;, 微软雅黑, Arial" text-anchor="middle" font-size="13px" width="100px" fill="#323232" font-weight="400" align="middle" lineHeight="125%" anchor="middle" family="&quot;Microsoft YaHei&quot;, 微软雅黑, Arial" size="13px" weight="400" font-style="" opacity="1" y="9.375" transform="rotate(0)"><tspan id="SvgjsTspan6661" dy="16.25" x="50"><tspan id="SvgjsTspan6662" style="">sys_connect</tspan></tspan></text></g></g><g id="SvgjsG6663"><path id="SvgjsPath6664" d="M885.2392471187375 614.2853258325588C 935.5524027765546 526.2073018454867 1011.0221362632803 495.5257228891114 1010.8477638846998 398.98716225683825" stroke="#a23735" stroke-width="3" fill="none" marker-end="url(#SvgjsMarker6665)"></path></g><g id="SvgjsG6667" transform="translate(957.0221362632803,286.0902658648786)"><path id="SvgjsPath6668" d="M 0 0L 108 0L 108 108L 0 108Z" stroke="none" fill="url(#SvgjsPattern6669)" opacity="1"></path></g><g id="SvgjsG6671" transform="translate(964.1569658955109,514.9056857841224)"><path id="SvgjsPath6672" d="M 0 0L 43 0L 43 42L 0 42Z" stroke="none" fill="url(#SvgjsPattern6673)" opacity="1"></path></g><g id="SvgjsG6675"><path id="SvgjsPath6676" d="M260.53119419095805 231.21173860793522L294.3407956619018 231.21173860793522L294.3407956619018 231.21173860793522L328.9003971328455 231.21173860793522" stroke="#37758b" stroke-width="3" fill="none" marker-end="url(#SvgjsMarker6677)"></path></g><g id="SvgjsG6679"></g><rect id="SvgjsRect6680" width="1090.0221362632803" height="812.817028985507" fill="url(#wpspattern_mark_0)"></rect></svg>